<svg width="300" height="300" viewBox="0 0 300 300" fill="none" xmlns="http://www.w3.org/2000/svg">
<path d="M300 0H0V300H300V0Z" fill="#F04E53"/>
<path d="M119.567 22.5067L77.565 64.5087L93.9532 80.8968L135.955 38.8948L119.567 22.5067Z" fill="white"/>
<path d="M176.086 22.0401L105.581 92.5444L121.969 108.933L192.474 38.4282L176.086 22.0401Z" fill="white"/>
<path d="M217.858 36.2328L133.559 120.532L149.947 136.92L234.246 52.621L217.858 36.2328Z" fill="white"/>
<path d="M38.842 163.781L22.4538 180.17L64.4558 222.171L80.8439 205.783L38.842 163.781Z" fill="white"/>
<path d="M38.3337 107.263L21.9456 123.651L92.4499 194.155L108.838 177.767L38.3337 107.263Z" fill="white"/>
<path d="M52.6911 65.628L36.303 82.0162L120.602 166.315L136.99 149.927L52.6911 65.628Z" fill="white"/>
<path d="M205.883 219.059L163.881 261.061L180.269 277.449L222.271 235.447L205.883 219.059Z" fill="white"/>
<path d="M177.867 191.065L107.362 261.57L123.75 277.958L194.255 207.453L177.867 191.065Z" fill="white"/>
<path d="M149.889 163.078L65.5904 247.377L81.9785 263.765L166.277 179.466L149.889 163.078Z" fill="white"/>
<path d="M235.559 77.6444L219.171 94.0325L261.173 136.034L277.561 119.646L235.559 77.6444Z" fill="white"/>
<path d="M207.523 105.619L191.135 122.007L261.64 192.512L278.028 176.123L207.523 105.619Z" fill="white"/>
<path d="M179.443 133.472L163.055 149.86L247.324 234.129L263.712 217.741L179.443 133.472Z" fill="white"/>
</svg>
