<svg xmlns="http://www.w3.org/2000/svg" viewBox="0 0 251.29 94.59"><defs><style>.cls-1{fill:none;}.cls-2{fill:#fff;}.cls-3{fill:#f04e53;}</style></defs><g id="Слой_2" data-name="Слой 2"><g id="Layer_1" data-name="Layer 1"><rect class="cls-1" width="251.29" height="94.59"/><path class="cls-2" d="M80.62,21.54a8,8,0,0,1,2.84.49,6.38,6.38,0,0,1,2.27,1.42,6.59,6.59,0,0,1,1.51,2.2,7.12,7.12,0,0,1,.55,2.84,7.27,7.27,0,0,1-.52,2.8,6.21,6.21,0,0,1-1.48,2.17,6.5,6.5,0,0,1-2.27,1.41,7.83,7.83,0,0,1-2.87.51h-3.4v9h-3V21.54Zm-3.37,3.21v7.43h3.88a3.57,3.57,0,0,0,3.65-3.72A3.84,3.84,0,0,0,84.51,27a3.67,3.67,0,0,0-.76-1.19,3.59,3.59,0,0,0-1.16-.8,3.69,3.69,0,0,0-1.46-.28Z"/><path class="cls-2" d="M99.45,21.54a15.08,15.08,0,0,1,4.9.76,11.2,11.2,0,0,1,3.86,2.21,10.09,10.09,0,0,1,2.54,3.57,12.21,12.21,0,0,1,.92,4.86,12,12,0,0,1-.92,4.81,10.09,10.09,0,0,1-2.57,3.57,11.6,11.6,0,0,1-3.89,2.24,14.62,14.62,0,0,1-4.84.78h-7V21.54Zm9.2,11.4a8.56,8.56,0,0,0-.6-3.21,8.11,8.11,0,0,0-1.67-2.6,7.78,7.78,0,0,0-2.55-1.75,8.36,8.36,0,0,0-3.27-.63H95.38V41.13h5.18a8.61,8.61,0,0,0,3.19-.59,7.66,7.66,0,0,0,2.57-1.67A7.56,7.56,0,0,0,108,36.29,8.62,8.62,0,0,0,108.65,32.94Z"/><path class="cls-2" d="M134.85,40.4a8.1,8.1,0,0,1-1.37,1.71,8,8,0,0,1-1.95,1.37,11.44,11.44,0,0,1-2.49.9,12,12,0,0,1-2.93.34,11,11,0,0,1-4.27-.84,10.83,10.83,0,0,1-3.54-2.4,11.59,11.59,0,0,1-2.41-3.72,12.58,12.58,0,0,1-.89-4.82,12.72,12.72,0,0,1,.89-4.84,11.38,11.38,0,0,1,2.41-3.72A10.93,10.93,0,0,1,121.84,22a11.11,11.11,0,0,1,4.31-.84,11.7,11.7,0,0,1,2.9.35,10.16,10.16,0,0,1,2.43.94,8.61,8.61,0,0,1,1.89,1.36,6.4,6.4,0,0,1,1.25,1.6l-.92,2.67a8.34,8.34,0,0,0-3-2.62,9,9,0,0,0-4.42-1.06,9.13,9.13,0,0,0-3.36.59,7.37,7.37,0,0,0-2.62,1.68,7.45,7.45,0,0,0-1.7,2.68,10.08,10.08,0,0,0-.6,3.59,10,10,0,0,0,.6,3.57,7.63,7.63,0,0,0,1.7,2.68,7.29,7.29,0,0,0,2.62,1.7,10.18,10.18,0,0,0,8-.51,9,9,0,0,0,3-2.65Z"/><path class="cls-2" d="M157.93,44.34h-3.18l-2.06-5.24H142.4l-2,5.24H137.1l8.83-22.8h3.2Zm-14.29-8.45h7.81l-3.94-10Z"/><path class="cls-2" d="M87,66.61a3.47,3.47,0,0,1-.78,1,5,5,0,0,1-1.28.87,8.17,8.17,0,0,1-1.73.62,8.66,8.66,0,0,1-2.08.24,8.24,8.24,0,0,1-3.11-.6,8.11,8.11,0,0,1-2.62-1.7,8.4,8.4,0,0,1-1.81-2.62,8.79,8.79,0,0,1,0-6.78,8,8,0,0,1,4.43-4.3,8.25,8.25,0,0,1,3.11-.61,8.53,8.53,0,0,1,2,.23,7.8,7.8,0,0,1,1.69.6,5.76,5.76,0,0,1,1.27.86,3.3,3.3,0,0,1,.78,1l-.77,2.29a5.46,5.46,0,0,0-1.87-1.32,6.06,6.06,0,0,0-2.57-.56,6.24,6.24,0,0,0-4.27,1.42,4.78,4.78,0,0,0-1.6,3.79,5.31,5.31,0,0,0,.42,2.14,5,5,0,0,0,1.19,1.66,5.67,5.67,0,0,0,1.85,1.06,7.3,7.3,0,0,0,2.41.38,6.08,6.08,0,0,0,2.67-.59,5.9,5.9,0,0,0,1.87-1.35Z"/><path class="cls-2" d="M106,57.78A8.54,8.54,0,0,1,104.26,67a7.9,7.9,0,0,1-2.54,1.73,7.8,7.8,0,0,1-3.07.62A7.88,7.88,0,0,1,93,67a8.12,8.12,0,0,1-1.73-2.64,8.83,8.83,0,0,1,0-6.6A8.18,8.18,0,0,1,93,55.15a8.05,8.05,0,0,1,2.55-1.75,7.72,7.72,0,0,1,3.08-.64,7.64,7.64,0,0,1,3.07.64,8.12,8.12,0,0,1,2.54,1.75A8.38,8.38,0,0,1,106,57.78Zm-12.46,3.3a5.92,5.92,0,0,0,.38,2.15,4.67,4.67,0,0,0,2.7,2.69,5.32,5.32,0,0,0,2,.37,5.41,5.41,0,0,0,2-.37,4.79,4.79,0,0,0,1.63-1,4.6,4.6,0,0,0,1.08-1.64,5.54,5.54,0,0,0,.38-2.13,5.7,5.7,0,0,0-.38-2.14,4.81,4.81,0,0,0-1.08-1.67,4.86,4.86,0,0,0-1.63-1.07,5.23,5.23,0,0,0-2-.39,5.14,5.14,0,0,0-2,.39A5,5,0,0,0,95,57.3,5.11,5.11,0,0,0,93.92,59,5.82,5.82,0,0,0,93.54,61.08Z"/><path class="cls-2" d="M118.69,52.76a7.73,7.73,0,0,1,2.5.43,6.53,6.53,0,0,1,2.23,1.31A6.37,6.37,0,0,1,125,56.75a8.05,8.05,0,0,1,.61,3.29V69h-2.89V60.1a4.87,4.87,0,0,0-.32-1.81,3.87,3.87,0,0,0-.86-1.33,3.63,3.63,0,0,0-1.27-.83,4.27,4.27,0,0,0-1.58-.29,4.7,4.7,0,0,0-1.46.23,4.55,4.55,0,0,0-1.27.62,3.74,3.74,0,0,0-1,.93,2.93,2.93,0,0,0-.53,1.18V69h-2.89V53.15h2.8v1.74a3,3,0,0,1,1.46-1.52A6,6,0,0,1,118.69,52.76Z"/><path class="cls-2" d="M133.86,61.5a7.94,7.94,0,0,1-2.48-1.94,3.89,3.89,0,0,1-.85-2.48A4.15,4.15,0,0,1,131.78,54a5,5,0,0,1,3.6-1.21,5.54,5.54,0,0,1,1.53.21,6.29,6.29,0,0,1,1.32.54,5.35,5.35,0,0,1,1,.75,3.45,3.45,0,0,1,.66.79l-.47,2.57a6.81,6.81,0,0,0-1.91-1.3,5.08,5.08,0,0,0-2.16-.48,3.33,3.33,0,0,0-1.38.27,1,1,0,0,0-.58,1,1.22,1.22,0,0,0,.49,1,14.9,14.9,0,0,0,1.28.81l1.78.95a9.85,9.85,0,0,1,2.78,2,3.93,3.93,0,0,1,.94,2.7,4.57,4.57,0,0,1-.4,1.89A4.45,4.45,0,0,1,139.18,68a5,5,0,0,1-1.73,1,7.1,7.1,0,0,1-2.29.35,6.55,6.55,0,0,1-1.68-.22,6.15,6.15,0,0,1-1.46-.61,4.93,4.93,0,0,1-1.16-.9,4.4,4.4,0,0,1-.78-1.13l.7-2.38a6.69,6.69,0,0,0,2,1.59,5.78,5.78,0,0,0,2.67.57,4.91,4.91,0,0,0,.86-.08,2.26,2.26,0,0,0,.74-.27,1.65,1.65,0,0,0,.54-.51,1.33,1.33,0,0,0,.21-.76,1.6,1.6,0,0,0-.62-1.21,8.62,8.62,0,0,0-1.64-1.08Z"/><path class="cls-2" d="M152.18,69.37a7.33,7.33,0,0,1-2.49-.43,6.4,6.4,0,0,1-2.19-1.3,6.3,6.3,0,0,1-1.57-2.26,8,8,0,0,1-.61-3.28v-9h2.89V62a4.2,4.2,0,0,0,1.13,3.15,3.92,3.92,0,0,0,2.84,1.1,4.74,4.74,0,0,0,1.46-.22,4.56,4.56,0,0,0,1.25-.62,4.51,4.51,0,0,0,1-.94,2.93,2.93,0,0,0,.52-1.17V53.15h2.89V69h-2.79V67.24A3,3,0,0,1,155,68.77,5.89,5.89,0,0,1,152.18,69.37Z"/><path class="cls-2" d="M165.26,45.88h2.89V69h-2.89Z"/><path class="cls-2" d="M184,67.37a3.72,3.72,0,0,1-1.43,1.41,4.63,4.63,0,0,1-2.41.59c-3.18,0-4.76-1.79-4.76-5.37V56.23h-2.86v-.89l4.86-6.19h.89v4h5.55v3.08h-5.55V63.5a3,3,0,0,0,.63,2.15,2.56,2.56,0,0,0,1.91.64,3,3,0,0,0,1.5-.35,3.93,3.93,0,0,0,1.07-.86Z"/><path class="cls-2" d="M188.21,48a2.08,2.08,0,0,1,.62-1.51,2,2,0,0,1,1.48-.61A2.1,2.1,0,0,1,192.44,48a2,2,0,0,1-.62,1.48,2.08,2.08,0,0,1-1.51.62,2.12,2.12,0,0,1-2.1-2.1Zm.67,5.15h2.89V69h-2.89Z"/><path class="cls-2" d="M204.85,52.76a7.79,7.79,0,0,1,2.51.43,6.58,6.58,0,0,1,2.22,1.31,6.39,6.39,0,0,1,1.59,2.25,8.23,8.23,0,0,1,.6,3.29V69h-2.89V60.1a4.87,4.87,0,0,0-.32-1.81,3.85,3.85,0,0,0-.85-1.33,3.73,3.73,0,0,0-1.27-.83,4.36,4.36,0,0,0-1.59-.29,4.7,4.7,0,0,0-1.46.23,4.55,4.55,0,0,0-1.27.62,4.09,4.09,0,0,0-1,.93,2.91,2.91,0,0,0-.52,1.18V69h-2.89V53.15h2.79v1.74A3,3,0,0,1,202,53.37,6,6,0,0,1,204.85,52.76Z"/><path class="cls-2" d="M232.25,53.15V69.24a7.17,7.17,0,0,1-.54,2.83,6.28,6.28,0,0,1-1.51,2.17,6.65,6.65,0,0,1-2.35,1.4,9,9,0,0,1-3.06.49,9.32,9.32,0,0,1-4-.84,6.45,6.45,0,0,1-2.74-2.3l.82-2.6a6.5,6.5,0,0,0,2.4,2,7.06,7.06,0,0,0,3.09.71,8,8,0,0,0,1.72-.19,4.65,4.65,0,0,0,1.62-.68,3.67,3.67,0,0,0,1.19-1.4,5.09,5.09,0,0,0,.46-2.33V67a3.47,3.47,0,0,1-1.67,1.43,7,7,0,0,1-3.06.6,8.6,8.6,0,0,1-3.15-.59,7.79,7.79,0,0,1-2.6-1.67,8.41,8.41,0,0,1-1.78-2.55,8,8,0,0,1-.66-3.29,8.1,8.1,0,0,1,.65-3.3A7.6,7.6,0,0,1,218.87,55a8.37,8.37,0,0,1,2.6-1.66,8.23,8.23,0,0,1,3.13-.61,7.45,7.45,0,0,1,3.12.61,3.48,3.48,0,0,1,1.73,1.39V53.15Zm-2.89,5.27a3.61,3.61,0,0,0-1.73-1.85,6.11,6.11,0,0,0-3-.73,6.37,6.37,0,0,0-2.19.37,4.75,4.75,0,0,0-1.68,1,4.58,4.58,0,0,0-1.08,1.59,5.22,5.22,0,0,0-.38,2.06,5.3,5.3,0,0,0,.38,2.07,4.41,4.41,0,0,0,1.08,1.57,4.86,4.86,0,0,0,1.68,1,6.56,6.56,0,0,0,5.16-.35,3.49,3.49,0,0,0,1.73-1.82Z"/><rect class="cls-3" x="16.46" y="20.35" width="49.42" height="49.42"/><rect class="cls-2" x="29.15" y="26.96" width="9.78" height="3.82" transform="translate(-10.45 32.53) rotate(-45)"/><rect class="cls-2" x="32.79" y="29.23" width="16.42" height="3.82" transform="translate(-10.01 38.11) rotate(-45)"/><rect class="cls-2" x="36.93" y="32.7" width="19.63" height="3.82" transform="translate(-10.78 43.19) rotate(-45)"/><rect class="cls-2" x="23.06" y="47.24" width="3.82" height="9.78" transform="translate(-29.55 32.92) rotate(-45)"/><rect class="cls-2" x="25.32" y="36.97" width="3.82" height="16.42" transform="translate(-23.97 32.49) rotate(-45)"/><rect class="cls-2" x="28.82" y="29.64" width="3.82" height="19.63" transform="translate(-18.9 33.28) rotate(-45)"/><rect class="cls-2" x="43.36" y="59.34" width="9.78" height="3.82" transform="translate(-29.17 52.06) rotate(-45)"/><rect class="cls-2" x="33.08" y="57.07" width="16.42" height="3.82" transform="translate(-29.61 46.47) rotate(-45)"/><rect class="cls-2" x="25.73" y="53.6" width="19.63" height="3.82" transform="translate(-28.84 41.39) rotate(-45)"/><rect class="cls-2" x="55.46" y="33.05" width="3.82" height="9.78" transform="translate(-10.03 51.68) rotate(-45)"/><rect class="cls-2" x="53.19" y="36.69" width="3.82" height="16.42" transform="translate(-15.61 52.11) rotate(-45)"/><rect class="cls-2" x="49.69" y="40.81" width="3.82" height="19.63" transform="translate(-20.69 51.32) rotate(-45)"/></g></g></svg>